<?xml version="1.0" encoding="UTF-8"?>
<svg xmlns="http://www.w3.org/2000/svg" xmlns:xlink="http://www.w3.org/1999/xlink" viewBox="0 0 556.16 556.52">
  <defs>
    <style>
      .cls-1 {
        stroke: #dff;
      }

      .cls-1, .cls-2 {
        stroke-miterlimit: 10;
        stroke-width: 20px;
      }

      .cls-1, .cls-2, .cls-3 {
        fill: none;
      }

      .cls-2 {
        stroke: #85aced;
      }

      .cls-4 {
        fill: #960097;
      }

      .cls-5 {
        clip-path: url(#clippath);
      }

      .cls-6 {
        fill: #29508a;
      }
    </style>
    <clipPath id="clippath">
      <path class="cls-3" d="M286.13,223.92c.13-.04,.27-.07,.4-.1,13.6-3.01,26.88-5.8,39.45-8.29,3.62-.72,7.15,1.64,7.87,5.27,.72,3.62-1.52,7.18-5.28,7.86-12.47,2.46-25.64,5.23-39.15,8.22-3.61,.8-7.18-1.48-7.99-5.09-.77-3.47,1.32-6.91,4.69-7.88h0Zm78.8-15.44c.25-.07,.5-.13,.76-.17,14.06-2.33,27.52-4.28,40.02-5.81,3.66-.45,7.01,2.16,7.46,5.83,.44,3.67-2.21,7.04-5.83,7.46-12.3,1.51-25.58,3.44-39.46,5.74-3.65,.61-7.09-1.86-7.7-5.51-.56-3.39,1.52-6.61,4.75-7.53h0Zm79.7-9.5c.46-.13,.95-.22,1.46-.25,15.12-.89,28.87-.99,40.88-.3,3.69,.21,6.52,3.37,6.31,7.06-.21,3.69-3.38,6.52-7.06,6.31-11.5-.65-24.73-.55-39.35,.3-3.69,.22-6.86-2.6-7.07-6.29-.18-3.19,1.89-5.98,4.83-6.82h0Zm79.49,6.69c1.32-.38,2.78-.36,4.18,.16,14.59,5.44,23.57,13.73,26.69,24.63,.96,3.37,1.34,6.97,1.1,10.7-.24,3.69-3.4,6.48-7.1,6.26-3.7-.24-6.49-3.41-6.26-7.1,.14-2.2-.07-4.27-.61-6.17-1.89-6.59-8.11-11.89-18.49-15.76-3.46-1.29-5.23-5.15-3.93-8.61,.76-2.07,2.44-3.54,4.42-4.1h0Zm5.12,63.6c2.14-.61,4.54-.15,6.32,1.45,2.75,2.47,2.98,6.7,.52,9.46-8.3,9.25-19.13,18.72-31.33,27.39-3.01,2.13-7.19,1.43-9.33-1.58-2.14-3.02-1.43-7.19,1.58-9.33,11.4-8.09,21.47-16.88,29.11-25.4,.87-.98,1.96-1.64,3.13-1.97h0Zm-64.78,46.82c3.08-.88,6.42,.55,7.86,3.53,1.61,3.33,.21,7.33-3.12,8.94-13.28,6.42-26.41,11.27-38.93,14.37-3.59,.9-7.22-1.28-8.11-4.87-.89-3.58,1.13-7.37,4.88-8.11,11.62-2.94,23.89-7.43,36.34-13.44,.35-.18,.71-.31,1.08-.41h0Zm-76.27,24.89c3.49-1,7.07,.69,8.15,4.16,1.1,3.54-.91,7.15-4.44,8.25-13.27,4.13-25.75,8.63-37.02,13.52-3.36,1.46-7.34-.11-8.81-3.51-1.47-3.4,.16-7.08,3.56-8.54,11.71-5.09,24.6-9.88,38.42-13.84l.15-.04h0Zm-73.34,31.9c2.77-.79,5.84,.27,7.48,2.83,1.99,3.11,1.08,7.25-2.03,9.24-11.7,7.49-21.67,15.65-29.64,24.29-2.52,2.71-6.74,2.88-9.46,.38-2.72-2.51-2.88-6.74-.38-9.46,8.75-9.47,19.6-18.38,32.26-26.48,.56-.35,1.15-.62,1.76-.8h0Zm-52.16,59.13c1.32-.38,2.77-.36,4.16,.16,3.47,1.29,5.24,5.14,3.96,8.6-4.28,11.57-5.86,23.86-4.7,36.54,.34,3.68-2.38,6.92-6.05,7.28-3.68,.34-6.94-2.37-7.28-6.05-1.36-14.69,.48-28.96,5.46-42.41,.77-2.08,2.47-3.55,4.45-4.12h0Zm5.91,77.91c3.08-.88,6.45,.56,7.88,3.56,5.34,11.19,12.42,21.95,21.06,31.98,2.41,2.8,2.1,7.03-.7,9.44-2.82,2.42-7.03,2.09-9.44-.7-9.41-10.93-17.14-22.69-23-34.97-1.59-3.34-.18-7.33,3.16-8.92,.34-.17,.7-.3,1.04-.4h0Zm-61.57-270.33c.13-.04,.27-.07,.39-.1,13.61-3.02,26.88-5.8,39.45-8.29,3.63-.72,7.15,1.64,7.87,5.27,.72,3.62-1.52,7.18-5.28,7.86-12.47,2.46-25.63,5.23-39.15,8.22-3.61,.8-7.18-1.48-7.99-5.09-.76-3.47,1.32-6.91,4.7-7.88h0Z"/>
    </clipPath>
  </defs>
  <g id="Layer_1" data-name="Layer 1">
    <path class="cls-4" d="M165.34,291.08c-4.34,0-8.5-2.43-10.51-6.6l-13.91-28.91-28.91,13.91c-5.78,2.78-12.75,.35-15.56-5.45-2.79-5.8-.35-12.76,5.45-15.56l28.91-13.91-13.91-28.9c-2.79-5.8-.35-12.76,5.45-15.56,5.79-2.76,12.76-.35,15.56,5.45l13.9,28.91,28.91-13.91c5.8-2.77,12.77-.35,15.56,5.45,2.79,5.8,.35,12.76-5.45,15.56l-28.91,13.91,13.91,28.91c2.79,5.8,.35,12.76-5.45,15.56-1.63,.78-3.35,1.15-5.05,1.15h0Z"/>
    <path class="cls-4" d="M199.52,181.75c-4.33,.17-8.59-2.1-10.76-6.18l-15.03-28.35-28.34,15.03c-5.67,3.01-12.73,.85-15.76-4.84-3.02-5.68-.85-12.74,4.84-15.76l28.34-15.03-15.03-28.33c-3.02-5.68-.85-12.74,4.84-15.76,5.68-2.99,12.74-.85,15.76,4.84l15.02,28.34,28.35-15.03c5.68-2.99,12.74-.85,15.76,4.84,3.02,5.69,.85,12.74-4.84,15.76l-28.35,15.03,15.03,28.34c3.02,5.68,.85,12.74-4.84,15.76-1.59,.84-3.3,1.28-5,1.35h0Z"/>
    <path class="cls-4" d="M133.54,391.53c-4.34,0-8.5-2.43-10.51-6.6l-13.91-28.91-28.91,13.91c-5.78,2.78-12.75,.35-15.56-5.45-2.79-5.8-.35-12.76,5.45-15.56l28.91-13.91-13.91-28.9c-2.79-5.8-.35-12.76,5.45-15.56,5.79-2.76,12.76-.35,15.56,5.45l13.9,28.91,28.91-13.91c5.8-2.77,12.77-.35,15.56,5.45,2.79,5.8,.35,12.76-5.45,15.56l-28.91,13.91,13.91,28.91c2.79,5.8,.35,12.76-5.45,15.56-1.63,.78-3.35,1.15-5.05,1.15h0Z"/>
  </g>
  <g id="Layer_4" data-name="Layer 4">
    <path class="cls-1" d="M194,10c30.9,0,56,25.1,56,56V466c0,30.9-25.1,56-56,56-28.9,0-52.7-21.9-55.7-50.1-5.2,1.4-10.7,2.1-16.3,2.1-35.3,0-64-28.7-64-64,0-7.4,1.3-14.6,3.6-21.2-30.2-11.4-51.6-40.6-51.6-74.8,0-31.9,18.7-59.5,45.8-72.3-8.7-10.9-13.8-24.7-13.8-39.7,0-30.7,21.6-56.3,50.4-62.6-1.6-5.5-2.4-11.4-2.4-17.4,0-29.9,20.6-55.1,48.3-62.1,3-28,26.8-49.9,55.7-49.9Zm144,0c28.9,0,52.6,21.9,55.7,49.9,27.8,7,48.3,32.1,48.3,62.1,0,6-.8,11.9-2.4,17.4,28.8,6.2,50.4,31.9,50.4,62.6,0,15-5.1,28.8-13.8,39.7,27.1,12.8,45.8,40.4,45.8,72.3,0,34.2-21.4,63.4-51.6,74.8,2.3,6.6,3.6,13.8,3.6,21.2,0,35.3-28.7,64-64,64-5.6,0-11.1-.7-16.3-2.1-3,28.2-26.8,50.1-55.7,50.1-30.9,0-56-25.1-56-56V66c0-30.9,25.1-56,56-56Z"/>
  </g>
  <g id="Layer_3" data-name="Layer 3">
    <g class="cls-5">
      <path class="cls-6" d="M286.13,223.92c.13-.04,.27-.07,.4-.1,13.6-3.01,26.88-5.8,39.45-8.29,3.62-.72,7.15,1.64,7.87,5.27,.72,3.62-1.52,7.18-5.28,7.86-12.47,2.46-25.64,5.23-39.15,8.22-3.61,.8-7.18-1.48-7.99-5.09-.77-3.47,1.32-6.91,4.69-7.88h0Zm78.8-15.44c.25-.07,.5-.13,.76-.17,14.06-2.33,27.52-4.28,40.02-5.81,3.66-.45,7.01,2.16,7.46,5.83,.44,3.67-2.21,7.04-5.83,7.46-12.3,1.51-25.58,3.44-39.46,5.74-3.65,.61-7.09-1.86-7.7-5.51-.56-3.39,1.52-6.61,4.75-7.53h0Zm79.7-9.5c.46-.13,.95-.22,1.46-.25,15.12-.89,28.87-.99,40.88-.3,3.69,.21,6.52,3.37,6.31,7.06-.21,3.69-3.38,6.52-7.06,6.31-11.5-.65-24.73-.55-39.35,.3-3.69,.22-6.86-2.6-7.07-6.29-.18-3.19,1.89-5.98,4.83-6.82h0Zm79.49,6.69c1.32-.38,2.78-.36,4.18,.16,14.59,5.44,23.57,13.73,26.69,24.63,.96,3.37,1.34,6.97,1.1,10.7-.24,3.69-3.4,6.48-7.1,6.26-3.7-.24-6.49-3.41-6.26-7.1,.14-2.2-.07-4.27-.61-6.17-1.89-6.59-8.11-11.89-18.49-15.76-3.46-1.29-5.23-5.15-3.93-8.61,.76-2.07,2.44-3.54,4.42-4.1h0Zm5.12,63.6c2.14-.61,4.54-.15,6.32,1.45,2.75,2.47,2.98,6.7,.52,9.46-8.3,9.25-19.13,18.72-31.33,27.39-3.01,2.13-7.19,1.43-9.33-1.58-2.14-3.02-1.43-7.19,1.58-9.33,11.4-8.09,21.47-16.88,29.11-25.4,.87-.98,1.96-1.64,3.13-1.97h0Zm-64.78,46.82c3.08-.88,6.42,.55,7.86,3.53,1.61,3.33,.21,7.33-3.12,8.94-13.28,6.42-26.41,11.27-38.93,14.37-3.59,.9-7.22-1.28-8.11-4.87-.89-3.58,1.13-7.37,4.88-8.11,11.62-2.94,23.89-7.43,36.34-13.44,.35-.18,.71-.31,1.08-.41h0Zm-76.27,24.89c3.49-1,7.07,.69,8.15,4.16,1.1,3.54-.91,7.15-4.44,8.25-13.27,4.13-25.75,8.63-37.02,13.52-3.36,1.46-7.34-.11-8.81-3.51-1.47-3.4,.16-7.08,3.56-8.54,11.71-5.09,24.6-9.88,38.42-13.84l.15-.04h0Zm-73.34,31.9c2.77-.79,5.84,.27,7.48,2.83,1.99,3.11,1.08,7.25-2.03,9.24-11.7,7.49-21.67,15.65-29.64,24.29-2.52,2.71-6.74,2.88-9.46,.38-2.72-2.51-2.88-6.74-.38-9.46,8.75-9.47,19.6-18.38,32.26-26.48,.56-.35,1.15-.62,1.76-.8h0Zm-52.16,59.13c1.32-.38,2.77-.36,4.16,.16,3.47,1.29,5.24,5.14,3.96,8.6-4.28,11.57-5.86,23.86-4.7,36.54,.34,3.68-2.38,6.92-6.05,7.28-3.68,.34-6.94-2.37-7.28-6.05-1.36-14.69,.48-28.96,5.46-42.41,.77-2.08,2.47-3.55,4.45-4.12h0Zm5.91,77.91c3.08-.88,6.45,.56,7.88,3.56,5.34,11.19,12.42,21.95,21.06,31.98,2.41,2.8,2.1,7.03-.7,9.44-2.82,2.42-7.03,2.09-9.44-.7-9.41-10.93-17.14-22.69-23-34.97-1.59-3.34-.18-7.33,3.16-8.92,.34-.17,.7-.3,1.04-.4h0Zm-61.57-270.33c.13-.04,.27-.07,.39-.1,13.61-3.02,26.88-5.8,39.45-8.29,3.63-.72,7.15,1.64,7.87,5.27,.72,3.62-1.52,7.18-5.28,7.86-12.47,2.46-25.63,5.23-39.15,8.22-3.61,.8-7.18-1.48-7.99-5.09-.76-3.47,1.32-6.91,4.7-7.88h0Z"/>
      <path class="cls-2" d="M194,10c30.9,0,56,25.1,56,56V466c0,30.9-25.1,56-56,56-28.9,0-52.7-21.9-55.7-50.1-5.2,1.4-10.7,2.1-16.3,2.1-35.3,0-64-28.7-64-64,0-7.4,1.3-14.6,3.6-21.2-30.2-11.4-51.6-40.6-51.6-74.8,0-31.9,18.7-59.5,45.8-72.3-8.7-10.9-13.8-24.7-13.8-39.7,0-30.7,21.6-56.3,50.4-62.6-1.6-5.5-2.4-11.4-2.4-17.4,0-29.9,20.6-55.1,48.3-62.1,3-28,26.8-49.9,55.7-49.9Zm144,0c28.9,0,52.6,21.9,55.7,49.9,27.8,7,48.3,32.1,48.3,62.1,0,6-.8,11.9-2.4,17.4,28.8,6.2,50.4,31.9,50.4,62.6,0,15-5.1,28.8-13.8,39.7,27.1,12.8,45.8,40.4,45.8,72.3,0,34.2-21.4,63.4-51.6,74.8,2.3,6.6,3.6,13.8,3.6,21.2,0,35.3-28.7,64-64,64-5.6,0-11.1-.7-16.3-2.1-3,28.2-26.8,50.1-55.7,50.1-30.9,0-56-25.1-56-56V66c0-30.9,25.1-56,56-56Z"/>
    </g>
  </g>
</svg>