<?xml version="1.0" encoding="UTF-8"?>
<svg xmlns="http://www.w3.org/2000/svg" viewBox="0 0 588.88 621">
  <defs>
    <style>
      .cls-1 {
        fill: none;
        stroke: #dff;
        stroke-miterlimit: 10;
        stroke-width: 20px;
      }

      .cls-2 {
        fill: #d98bd9;
        fill-rule: evenodd;
        stroke: #d98bd9;
        stroke-linecap: round;
        stroke-linejoin: round;
        stroke-width: 8px;
      }
    </style>
  </defs>
  <g id="Layer_4" data-name="Layer 4">
    <path class="cls-1" d="M215.63,40.73c30.9,0,56,25.1,56,56V496.73c0,30.9-25.1,56-56,56-28.9,0-52.7-21.9-55.7-50.1-5.2,1.4-10.7,2.1-16.3,2.1-35.3,0-64-28.7-64-64,0-7.4,1.3-14.6,3.6-21.2-30.2-11.4-51.6-40.6-51.6-74.8,0-31.9,18.7-59.5,45.8-72.3-8.7-10.9-13.8-24.7-13.8-39.7,0-30.7,21.6-56.3,50.4-62.6-1.6-5.5-2.4-11.4-2.4-17.4,0-29.9,20.6-55.1,48.3-62.1,3-28,26.8-49.9,55.7-49.9Zm144,0c28.9,0,52.6,21.9,55.7,49.9,27.8,7,48.3,32.1,48.3,62.1,0,6-.8,11.9-2.4,17.4,28.8,6.2,50.4,31.9,50.4,62.6,0,15-5.1,28.8-13.8,39.7,27.1,12.8,45.8,40.4,45.8,72.3,0,34.2-21.4,63.4-51.6,74.8,2.3,6.6,3.6,13.8,3.6,21.2,0,35.3-28.7,64-64,64-5.6,0-11.1-.7-16.3-2.1-3,28.2-26.8,50.1-55.7,50.1-30.9,0-56-25.1-56-56V96.73c0-30.9,25.1-56,56-56Z"/>
  </g>
  <g id="Layer_1" data-name="Layer 1">
    <path class="cls-2" d="M311.87,178l-177.5,177.5-91.88-91.88-30.24,30.24,122.12,122.14,207.76-207.74-30.26-30.26Z"/>
  </g>
</svg>